<svg width="793" height="200" viewBox="0 0 793 200" fill="none" xmlns="http://www.w3.org/2000/svg">
<path d="M116.667 10C87.5 10 85 30.8333 85 42.9167C99.3333 40.4167 110.139 42.3611 115 42.9167C113.056 40.5555 109.167 33.8333 109.167 25.8333C109.167 17.8333 114.167 11.9444 116.667 10Z" fill="#1C2D3D"/>
<path d="M32.0833 114.407C32.0833 56.0385 73.9411 41.3288 99.7917 41.2503C125.642 41.3288 167.5 56.0385 167.5 114.407C177.083 114.407 192.083 121.096 192.083 141.58C192.083 152.449 184.592 167.917 157.917 167.917H100.417H99.1667H41.6667C14.9917 167.917 7.5 152.449 7.5 141.58C7.5 121.096 22.5 114.407 32.0833 114.407Z" fill="white"/>
<path fill-rule="evenodd" clip-rule="evenodd" d="M99.7917 37.9169C99.7222 37.9167 99.6527 37.9166 99.5834 37.9166V37.9178C86.1473 37.9956 68.523 41.8496 54.1581 53.3695C40.0955 64.6471 29.5128 82.9905 28.7895 111.29C23.991 111.906 18.5816 113.886 14.0311 117.779C8.29142 122.689 4.16667 130.434 4.16667 141.58C4.16667 147.735 6.2835 155.221 12.2191 161.177C18.1955 167.174 27.6698 171.25 41.6667 171.25H157.917C171.914 171.25 181.388 167.174 187.364 161.177C193.3 155.221 195.417 147.735 195.417 141.58C195.417 130.434 191.292 122.689 185.552 117.779C181.002 113.886 175.592 111.906 170.794 111.29C170.071 82.9905 159.488 64.6471 145.425 53.3695C131.06 41.8496 113.436 37.9956 100 37.9178V37.9166C99.9307 37.9166 99.8613 37.9167 99.7917 37.9169ZM99.7917 44.5836C87.4031 44.6232 71.2814 48.1832 58.329 58.5704C45.51 68.8506 35.4167 86.1158 35.4167 114.407C35.4167 116.248 33.9243 117.741 32.0833 117.741C27.976 117.741 22.6301 119.196 18.3648 122.845C14.2086 126.4 10.8333 132.242 10.8333 141.58C10.8333 146.294 12.4624 151.977 16.9414 156.471C21.3795 160.925 28.9886 164.583 41.6667 164.583H157.917C170.595 164.583 178.204 160.925 182.642 156.471C187.121 151.977 188.75 146.294 188.75 141.58C188.75 132.242 185.375 126.4 181.219 122.845C176.953 119.196 171.607 117.741 167.5 117.741C165.659 117.741 164.167 116.248 164.167 114.407C164.167 86.1158 154.073 68.8506 141.254 58.5704C128.302 48.1832 112.18 44.6232 99.7917 44.5836Z" fill="#1C2D3D"/>
<path d="M79.1967 131.665C86.1703 127.147 95.5705 125.464 99.4222 125.418C103.274 125.464 112.674 127.147 119.648 131.665C129.577 138.097 139.202 140.411 145.443 139.162C150.201 138.21 157.607 134.997 162.502 145.41C165.83 152.491 160.005 173.734 147.94 182.481C135.874 191.228 125.472 190.395 119.648 190.395C115.106 190.395 106.466 188.754 99.4222 188.729C92.3782 188.754 83.7386 190.395 79.1967 190.395C73.3719 190.395 62.9705 191.228 50.9049 182.481C38.8392 173.734 33.0144 152.491 36.3429 145.41C41.2377 134.997 48.5761 138.647 53.4012 139.162C61.25 140 69.2675 138.097 79.1967 131.665Z" fill="#FBE54D"/>
<path fill-rule="evenodd" clip-rule="evenodd" d="M99.4222 122.084C99.3681 122.084 99.3143 122.083 99.2609 122.083V122.086C94.8714 122.17 84.933 123.977 77.3844 128.867C67.9429 134.983 60.6798 136.587 53.755 135.848C53.0994 135.778 52.4853 135.656 51.7104 135.503C51.212 135.404 50.6471 135.293 49.9619 135.173C48.4206 134.904 46.5348 134.662 44.5452 134.873C42.4971 135.092 40.3682 135.787 38.3653 137.324C36.3907 138.839 34.7154 141.037 33.3262 143.992C32.124 146.55 31.9112 149.904 32.196 153.243C32.4899 156.687 33.3531 160.555 34.7045 164.421C37.3793 172.072 42.1658 180.263 48.9484 185.18C61.0059 193.921 71.6941 193.805 77.8056 193.739C78.2998 193.734 78.7641 193.729 79.1967 193.729C81.4443 193.729 84.522 193.372 87.6367 193.012C88.0079 192.969 88.3796 192.926 88.7506 192.883C92.3684 192.469 96.1122 192.076 99.4222 192.063C102.732 192.076 106.476 192.469 110.094 192.883C110.465 192.926 110.837 192.969 111.208 193.012C114.322 193.372 117.4 193.729 119.648 193.729C120.08 193.729 120.545 193.734 121.039 193.739C127.15 193.805 137.839 193.921 149.896 185.18C156.679 180.263 161.465 172.072 164.14 164.421C165.491 160.555 166.355 156.687 166.648 153.243C166.933 149.904 166.72 146.55 165.518 143.992C164.131 141.042 162.461 138.832 160.504 137.289C158.52 135.725 156.399 134.972 154.332 134.716C152.314 134.466 150.405 134.695 148.808 134.997C148.005 135.149 147.241 135.328 146.571 135.487C146.496 135.505 146.424 135.522 146.353 135.539C145.754 135.682 145.255 135.8 144.789 135.894C139.745 136.903 131.021 135.061 121.46 128.867C113.911 123.977 103.973 122.17 99.5835 122.086V122.083C99.5302 122.083 99.4764 122.084 99.4222 122.084ZM99.4222 128.751C96.0156 128.804 87.3124 130.379 81.009 134.462C70.5921 141.21 61.8203 143.413 53.0474 142.477C52.1219 142.378 50.9917 142.158 50.0071 141.966C49.5711 141.881 49.1637 141.801 48.8153 141.74C47.4706 141.506 46.3111 141.39 45.2511 141.503C44.2497 141.609 43.3246 141.922 42.4241 142.613C41.4954 143.326 40.4178 144.577 39.3596 146.828C38.8976 147.811 38.5903 149.767 38.8386 152.676C39.0778 155.48 39.8008 158.797 40.9977 162.221C43.4196 169.148 47.5783 175.953 52.8614 179.783C63.1093 187.212 71.8833 187.128 77.7864 187.071C78.2766 187.067 78.7469 187.062 79.1967 187.062C81.0313 187.062 83.6927 186.755 86.95 186.38C87.2908 186.341 87.6382 186.301 87.9918 186.26C91.538 185.854 95.5702 185.421 99.2609 185.397V185.396C99.3146 185.396 99.3683 185.396 99.4221 185.396C99.4517 185.396 99.4813 185.396 99.5109 185.396C99.5351 185.396 99.5593 185.396 99.5835 185.396V185.397C103.274 185.421 107.306 185.854 110.853 186.26C111.206 186.301 111.554 186.341 111.894 186.38C115.152 186.755 117.813 187.062 119.648 187.062C120.098 187.062 120.568 187.067 121.058 187.071C126.961 187.128 135.735 187.212 145.983 179.783C151.266 175.953 155.425 169.148 157.847 162.221C159.044 158.797 159.767 155.48 160.006 152.676C160.254 149.767 159.947 147.811 159.485 146.828C158.424 144.572 157.333 143.279 156.377 142.525C155.447 141.792 154.502 141.455 153.511 141.332C152.47 141.203 151.33 141.305 150.047 141.547C149.41 141.668 148.777 141.815 148.113 141.973C148.04 141.99 147.967 142.008 147.894 142.025C147.315 142.163 146.69 142.312 146.098 142.431C138.66 143.92 128.133 141.133 117.835 134.462C111.532 130.379 102.829 128.804 99.4222 128.751Z" fill="#1C2D3D"/>
<path fill-rule="evenodd" clip-rule="evenodd" d="M62.9167 120.417C67.9793 120.417 72.0833 115.193 72.0833 108.75C72.0833 102.307 67.9793 97.0834 62.9167 97.0834C57.8541 97.0834 53.75 102.307 53.75 108.75C53.75 115.193 57.8541 120.417 62.9167 120.417ZM136.25 120.417C141.313 120.417 145.417 115.193 145.417 108.75C145.417 102.307 141.313 97.0834 136.25 97.0834C131.187 97.0834 127.083 102.307 127.083 108.75C127.083 115.193 131.187 120.417 136.25 120.417Z" fill="#1C2D3D"/>
<path fill-rule="evenodd" clip-rule="evenodd" d="M93.551 153.401C95.3373 152.956 96.1987 150.242 95.4749 147.339C94.7512 144.436 92.7165 142.444 90.9302 142.89C89.1439 143.335 88.2826 146.049 89.0063 148.952C89.73 151.855 91.7648 153.847 93.551 153.401ZM106.764 153.401C108.55 153.847 110.585 151.855 111.308 148.952C112.032 146.049 111.171 143.335 109.384 142.89C107.598 142.444 105.563 144.436 104.84 147.339C104.116 150.242 104.977 152.956 106.764 153.401Z" fill="#1C2D3D"/>
<path fill-rule="evenodd" clip-rule="evenodd" d="M760.617 89.0982V67.9245L778.198 90.5161L792.661 88.531L772.149 62.2529L791.621 40.4175H775.835L760.617 58.1883V20H747.288V89.0982H760.617ZM312.813 20.0945H297.594V32.3828H312.813V20.0945ZM299.296 77.6606H290.221V89.0982H320.753V77.6606H312.624V40.4175H290.221V51.8551H299.296V77.6606ZM248.507 89.0982C251.847 89.9174 255.345 90.327 259 90.327C266.436 90.327 272.233 88.6256 276.392 85.2226C280.551 81.8197 282.631 77.0619 282.631 70.9493C282.631 66.9792 281.78 63.7653 280.079 61.3077C278.377 58.787 276.329 56.865 273.935 55.5416C271.54 54.2183 268.515 52.8634 264.86 51.477L260.985 49.9646C258.464 48.8933 256.636 47.885 255.502 46.9398C254.368 45.9945 253.801 44.6712 253.801 42.9697C253.801 41.0162 254.62 39.4723 256.258 38.338C257.897 37.1406 260.197 36.542 263.159 36.542C265.553 36.542 268.074 36.9201 270.721 37.6763C273.431 38.4325 275.951 39.4723 278.283 40.7956L280.362 28.3182C274.565 26.0496 268.893 24.9153 263.348 24.9153C256.038 24.9153 250.335 26.6483 246.239 30.1142C242.143 33.5802 240.095 38.338 240.095 44.3876C240.095 48.1056 240.851 51.1304 242.363 53.462C243.939 55.7937 245.798 57.6212 247.94 58.9445C250.083 60.2049 252.918 61.5597 256.447 63.0091C256.952 63.1982 257.393 63.3872 257.771 63.5763C258.149 63.7023 258.496 63.8283 258.811 63.9544L261.079 64.8996C263.789 65.9709 265.774 66.9792 267.034 67.9245C268.295 68.8067 268.925 70.0985 268.925 71.8C268.925 73.8796 267.98 75.5495 266.089 76.8099C264.199 78.0702 261.741 78.7004 258.716 78.7004C256.069 78.7004 253.171 78.2277 250.02 77.2825C246.932 76.2742 243.97 74.8878 241.134 73.1234L240 85.7898C242.395 87.1762 245.23 88.279 248.507 89.0982ZM329.585 40.4175H342.63V47.9796C346.474 42.056 351.673 39.0942 358.226 39.0942C361.944 39.0942 365.095 39.9764 367.679 41.7409C370.326 43.4423 372.248 45.9 373.445 49.1139C375.651 45.6479 378.108 43.1273 380.818 41.5518C383.591 39.9134 386.742 39.0942 390.271 39.0942C395.501 39.0942 399.566 40.6696 402.464 43.8204C405.426 46.9083 406.907 51.2249 406.907 56.7704V89.0982H393.579V58.85C393.579 56.3293 392.949 54.3758 391.688 52.9894C390.491 51.54 388.853 50.8153 386.773 50.8153C384.189 50.8153 381.795 51.8866 379.589 54.0292C377.384 56.1718 375.745 58.913 374.674 62.2529V89.0982H361.346V58.85C361.346 56.3923 360.716 54.4388 359.455 52.9894C358.195 51.54 356.525 50.8153 354.445 50.8153C352.114 50.8153 349.908 51.6976 347.829 53.462C345.812 55.1635 344.174 57.5897 342.913 60.7405V89.0982H329.585V40.4175ZM432.63 40.4175H419.68V109.578H419.668V128.767C417.525 128.641 415.918 128.578 414.847 128.578C406.277 128.578 399.66 130.973 394.997 135.762C390.396 140.488 388.096 147.294 388.096 156.179C388.096 163.678 389.64 169.539 392.728 173.761C395.879 177.92 400.196 180 405.678 180C408.703 180 411.381 179.338 413.713 178.015C416.107 176.692 418.124 174.77 419.762 172.249H420.141L419.857 178.582H432.807V109.705H432.819V90.2325C434.961 90.3585 436.568 90.4215 437.64 90.4215C446.21 90.4215 452.795 88.0584 457.396 83.3321C462.059 78.5428 464.39 71.7055 464.39 62.8201C464.39 55.321 462.815 49.492 459.664 45.3328C456.576 41.1107 452.291 38.9996 446.809 38.9996C443.784 38.9996 441.074 39.6613 438.679 40.9847C436.348 42.308 434.363 44.23 432.724 46.7507H432.346L432.63 40.4175ZM447.943 74.9193C445.926 77.503 442.933 78.7949 438.963 78.7949C437.009 78.7949 434.961 78.5113 432.819 77.9442V60.646C434.331 57.4321 436.033 54.9745 437.923 53.273C439.814 51.5085 441.767 50.6263 443.784 50.6263C446.052 50.6263 447.817 51.7921 449.077 54.1237C450.401 56.3923 451.062 59.5432 451.062 63.5763C451.062 68.5546 450.023 72.3356 447.943 74.9193ZM470.215 77.6606H478.817V31.4376H470.687V20.0945H492.145V77.6606H500.747V89.0982H470.215V77.6606ZM512.738 83.7102C517.275 88.2474 523.482 90.5161 531.36 90.5161C534.51 90.5161 537.598 90.138 540.623 89.3818C543.711 88.6886 546.515 87.6803 549.036 86.3569L546.862 75.6755C544.971 76.6838 542.766 77.503 540.245 78.1332C537.724 78.7004 535.298 78.9839 532.966 78.9839C529.122 78.9839 526.066 78.1332 523.798 76.4318C521.529 74.6673 520.079 72.1151 519.449 68.7752H551.588C551.651 68.082 551.683 67.0107 551.683 65.5613C551.683 56.991 549.792 50.4372 546.011 45.9C542.23 41.3628 536.811 39.0942 529.753 39.0942C524.963 39.0942 520.773 40.1339 517.181 42.2135C513.652 44.2931 510.911 47.2864 508.957 51.1934C507.003 55.0375 506.027 59.5747 506.027 64.8051C506.027 72.8713 508.264 79.173 512.738 83.7102ZM536.086 52.3277C537.787 53.9032 538.733 56.0457 538.922 58.7555H519.355C519.796 55.9827 520.867 53.8086 522.569 52.2332C524.333 50.6578 526.57 49.8701 529.28 49.8701C532.116 49.8701 534.384 50.6893 536.086 52.3277ZM590.974 89.1927C586.5 89.1927 583.16 89.1612 580.954 89.0982V26.1442C583.664 26.0811 587.666 26.0496 592.959 26.0496C598.316 26.0496 602.317 26.0811 604.964 26.1442C611.14 26.2072 616.496 27.4675 621.033 29.9252C625.634 32.3198 629.163 35.7543 631.62 40.2285C634.141 44.7027 635.401 49.9331 635.401 55.9197C635.401 62.4735 633.952 68.2395 631.053 73.2179C628.217 78.1962 624.184 82.0718 618.954 84.8445C613.786 87.6173 607.768 89.0352 600.899 89.0982C598.694 89.1612 595.385 89.1927 590.974 89.1927ZM600.805 77.188C607.17 77.188 612.179 75.329 615.834 71.611C619.489 67.8929 621.317 62.7886 621.317 56.2978C621.317 50.4372 619.741 45.9315 616.591 42.7807C613.503 39.6298 609.029 38.0544 603.168 38.0544H594.661V77.188H600.805ZM649.256 85.6953C652.218 88.8461 656.282 90.4215 661.45 90.4215C664.79 90.4215 667.625 89.7599 669.957 88.4365C672.352 87.0501 674.463 85.1281 676.29 82.6704V89.0982H689.618V40.4175H676.29V71.0438C674.967 73.3754 673.297 75.2344 671.28 76.6208C669.327 78.0072 667.279 78.7004 665.136 78.7004C662.994 78.7004 661.292 78.0072 660.032 76.6208C658.771 75.1714 658.141 73.1549 658.141 70.5712V40.4175H644.813V72.7453C644.813 78.2277 646.294 82.5444 649.256 85.6953ZM724.558 90.5161C716.492 90.5161 710.222 88.3735 705.747 84.0883C701.336 79.8032 699.131 73.7535 699.131 65.9394C699.131 60.646 700.17 55.9827 702.25 51.9496C704.33 47.8535 707.26 44.7027 711.041 42.4971C714.822 40.2285 719.202 39.0942 724.18 39.0942C726.512 39.0942 728.938 39.3777 731.458 39.9449C734.042 40.449 736.027 41.0477 737.413 41.7409L734.861 52.9894C733.412 52.2962 731.805 51.7606 730.04 51.3825C728.339 50.9414 726.732 50.7208 725.22 50.7208C721.313 50.7208 718.162 52.0442 715.767 54.6909C713.435 57.3376 712.27 60.835 712.27 65.1832C712.27 69.5944 713.467 72.9973 715.862 75.392C718.319 77.7866 721.785 78.9839 726.259 78.9839C729.221 78.9839 732.404 78.4168 735.807 77.2825L737.792 88.0584C733.695 89.6968 729.284 90.5161 724.558 90.5161ZM408.703 168.373C410.719 168.373 412.673 167.523 414.564 165.821C416.454 164.057 418.155 161.567 419.668 158.354V141.055C417.525 140.488 415.477 140.205 413.524 140.205C409.554 140.205 406.529 141.496 404.449 144.08C402.433 146.664 401.424 150.445 401.424 155.423C401.424 159.456 402.055 162.639 403.315 164.97C404.638 167.239 406.434 168.373 408.703 168.373ZM261.442 179.811C257.787 179.811 254.289 179.401 250.949 178.582C247.672 177.763 244.837 176.66 242.442 175.274L243.576 162.607C246.412 164.372 249.374 165.758 252.462 166.766C255.613 167.712 258.511 168.184 261.158 168.184C264.183 168.184 266.641 167.554 268.531 166.294C270.422 165.033 271.367 163.363 271.367 161.284C271.367 159.582 270.737 158.291 269.476 157.408C268.216 156.463 266.231 155.455 263.521 154.383L261.253 153.438C260.938 153.312 260.591 153.186 260.213 153.06C259.835 152.871 259.394 152.682 258.889 152.493C255.361 151.044 252.525 149.689 250.382 148.428C248.24 147.105 246.381 145.278 244.805 142.946C243.293 140.614 242.537 137.589 242.537 133.871C242.537 127.822 244.585 123.064 248.681 119.598C252.777 116.132 258.48 114.399 265.79 114.399C271.335 114.399 277.007 115.533 282.804 117.802L280.725 130.279C278.393 128.956 275.873 127.916 273.163 127.16C270.516 126.404 267.995 126.026 265.601 126.026C262.639 126.026 260.339 126.624 258.7 127.822C257.062 128.956 256.243 130.5 256.243 132.454C256.243 134.155 256.81 135.478 257.944 136.424C259.079 137.369 260.906 138.377 263.427 139.448L267.302 140.961C270.957 142.347 273.982 143.702 276.377 145.025C278.771 146.349 280.819 148.271 282.521 150.792C284.222 153.249 285.073 156.463 285.073 160.433C285.073 166.546 282.994 171.304 278.834 174.706C274.675 178.109 268.878 179.811 261.442 179.811ZM311.953 180C307.416 180 303.887 178.866 301.366 176.597C298.909 174.265 297.68 170.988 297.68 166.766V141.339H290.118V129.901H297.68V119.504C302.154 118.747 306.565 118.18 310.913 117.802V129.901H323.202V141.339H310.913V164.309C310.913 165.632 311.291 166.64 312.048 167.333C312.867 168.027 314.001 168.373 315.45 168.373C317.215 168.373 319.232 167.964 321.5 167.144L324.43 177.164C320.397 179.055 316.238 180 311.953 180ZM337.843 175.179C340.805 178.33 344.87 179.905 350.037 179.905C353.377 179.905 356.213 179.244 358.545 177.92C360.939 176.534 363.05 174.612 364.878 172.154V178.582H378.206V129.901H364.878V160.528C363.554 162.859 361.884 164.718 359.868 166.105C357.914 167.491 355.866 168.184 353.724 168.184C351.581 168.184 349.88 167.491 348.619 166.105C347.359 164.655 346.729 162.639 346.729 160.055V129.901H333.401V162.229C333.401 167.712 334.882 172.028 337.843 175.179ZM465.905 109.578H450.686V121.867H465.905V109.578ZM452.388 167.144H443.313V178.582H473.845V167.144H465.716V129.901H443.313V141.339H452.388V167.144ZM504.251 180C499.336 180 494.988 178.929 491.207 176.786C487.489 174.643 484.59 171.65 482.51 167.806C480.431 163.899 479.391 159.393 479.391 154.289C479.391 149.185 480.399 144.71 482.416 140.866C484.495 136.959 487.394 133.934 491.112 131.792C494.893 129.649 499.241 128.578 504.157 128.578C509.072 128.578 513.389 129.649 517.107 131.792C520.888 133.871 523.787 136.833 525.803 140.677C527.883 144.521 528.922 148.964 528.922 154.005C528.922 159.11 527.883 163.647 525.803 167.617C523.787 171.524 520.888 174.58 517.107 176.786C513.389 178.929 509.104 180 504.251 180ZM504.157 168.468C507.56 168.468 510.269 167.176 512.286 164.592C514.366 161.946 515.405 158.48 515.405 154.194C515.405 149.909 514.366 146.506 512.286 143.986C510.269 141.402 507.56 140.11 504.157 140.11C500.754 140.11 498.013 141.402 495.933 143.986C493.916 146.506 492.908 149.909 492.908 154.194C492.908 158.48 493.916 161.946 495.933 164.592C498.013 167.176 500.754 168.468 504.157 168.468ZM544.368 179.055C547.267 179.685 550.26 180 553.348 180C559.46 180 564.376 178.708 568.094 176.124C571.812 173.541 573.671 169.665 573.671 164.498C573.671 161.41 573.009 158.889 571.686 156.936C570.362 154.919 568.818 153.407 567.054 152.398C565.289 151.39 563.084 150.35 560.437 149.279C560.122 149.153 559.019 148.743 557.129 148.05C554.734 147.231 553.033 146.506 552.024 145.876C551.016 145.246 550.512 144.301 550.512 143.04C550.512 141.717 551.111 140.709 552.308 140.016C553.568 139.322 555.238 138.976 557.318 138.976C559.334 138.976 561.477 139.322 563.746 140.016C566.077 140.646 568.157 141.496 569.984 142.568L571.78 131.319C566.613 129.492 561.697 128.578 557.034 128.578C551.111 128.578 546.29 129.964 542.572 132.737C538.917 135.447 537.089 139.259 537.089 144.175C537.089 147.263 537.782 149.752 539.169 151.642C540.555 153.533 542.099 154.951 543.801 155.896C545.502 156.778 547.708 157.723 550.417 158.732L552.97 159.677C555.805 160.685 557.727 161.536 558.736 162.229C559.744 162.859 560.248 163.773 560.248 164.97C560.248 166.483 559.523 167.649 558.074 168.468C556.625 169.224 554.829 169.602 552.686 169.602C550.417 169.602 547.991 169.192 545.408 168.373C542.824 167.554 540.461 166.483 538.318 165.159L537.089 176.502C539.106 177.574 541.532 178.424 544.368 179.055Z" fill="#1C2D3D"/>
</svg>
