<svg width="191" height="48" viewBox="0 0 191 48" fill="none" xmlns="http://www.w3.org/2000/svg">
<path d="M28 2.3999C21 2.3999 20.4 7.3999 20.4 10.2999C23.84 9.6999 26.4334 10.1666 27.6 10.2999C27.1334 9.73323 26.2 8.1199 26.2 6.1999C26.2 4.2799 27.4 2.86657 28 2.3999Z" fill="black"/>
<path d="M7.70005 27.4577C7.70005 13.4491 17.7459 9.91883 23.9501 9.89998C30.1542 9.91883 40.2001 13.4491 40.2001 27.4577C42.5001 27.4577 46.1001 29.0629 46.1001 33.9791C46.1001 36.5877 44.3021 40.2999 37.9001 40.2999H24.1001H23.8001H10.0001C3.59805 40.2999 1.80005 36.5877 1.80005 33.9791C1.80005 29.0629 5.40005 27.4577 7.70005 27.4577Z" fill="white"/>
<path fill-rule="evenodd" clip-rule="evenodd" d="M23.95 9.10017C23.9333 9.10012 23.9167 9.1001 23.9 9.1001V9.10039C20.6754 9.11906 16.4455 10.044 12.998 12.8088C9.62292 15.5154 7.08308 19.9178 6.90948 26.7096C5.75785 26.8576 4.45957 27.3329 3.36746 28.2671C1.98994 29.4455 1 31.3042 1 33.9793C1 35.4564 1.50804 37.2531 2.93258 38.6826C4.36692 40.122 6.64075 41.1001 10 41.1001H37.9C41.2593 41.1001 43.5331 40.122 44.9675 38.6826C46.392 37.2531 46.9 35.4564 46.9 33.9793C46.9 31.3042 45.9101 29.4455 44.5326 28.2671C43.4405 27.3329 42.1422 26.8576 40.9905 26.7096C40.817 19.9178 38.2771 15.5154 34.9021 12.8088C31.4545 10.044 27.2247 9.11906 24 9.10039V9.1001C23.9834 9.1001 23.9667 9.10012 23.95 9.10017ZM23.95 10.7002C20.9767 10.7097 17.1075 11.5641 13.999 14.057C10.9224 16.5242 8.50001 20.6679 8.50001 27.4579C8.50001 27.8997 8.14183 28.2579 7.7 28.2579C6.71425 28.2579 5.43122 28.6072 4.40754 29.4829C3.41006 30.3362 2.6 31.7383 2.6 33.9793C2.6 35.1108 2.99096 36.4745 4.06593 37.5532C5.13109 38.6221 6.95726 39.5001 10 39.5001H37.9C40.9428 39.5001 42.7689 38.6221 43.8341 37.5532C44.9091 36.4745 45.3 35.1108 45.3 33.9793C45.3 31.7383 44.49 30.3362 43.4925 29.4829C42.4688 28.6072 41.1858 28.2579 40.2 28.2579C39.7582 28.2579 39.4 27.8997 39.4 27.4579C39.4 20.6679 36.9776 16.5242 33.9011 14.057C30.7925 11.5641 26.9233 10.7097 23.95 10.7002Z" fill="black"/>
<path d="M19.0072 31.5996C20.6808 30.5154 22.9369 30.1115 23.8613 30.1003C24.7857 30.1115 27.0418 30.5154 28.7154 31.5996C31.0984 33.1433 33.4085 33.6988 34.9063 33.399C36.0483 33.1704 37.8256 32.3993 39.0003 34.8985C39.7992 36.598 38.4012 41.6963 35.5055 43.7956C32.6097 45.8949 30.1134 45.695 28.7154 45.695C27.6254 45.695 25.5519 45.3011 23.8613 45.2952C22.1707 45.3011 20.0972 45.695 19.0072 45.695C17.6092 45.695 15.1129 45.8949 12.2171 43.7956C9.32138 41.6963 7.92343 36.598 8.72226 34.8985C9.89701 32.3993 11.6582 33.2754 12.8163 33.399C14.7 33.6001 16.6242 33.1433 19.0072 31.5996Z" fill="white"/>
<path fill-rule="evenodd" clip-rule="evenodd" d="M23.8613 29.3C23.8483 29.2999 23.8354 29.2998 23.8226 29.2998V29.3006C22.7691 29.3206 20.3839 29.7543 18.5722 30.9279C16.3062 32.3958 14.5631 32.7806 12.9012 32.6032C12.7438 32.5864 12.5964 32.5573 12.4104 32.5205C12.2908 32.4969 12.1553 32.4701 11.9908 32.4413C11.6209 32.3768 11.1683 32.3186 10.6908 32.3694C10.1993 32.4218 9.68832 32.5887 9.20762 32.9576C8.73371 33.3213 8.33165 33.8486 7.99824 34.5579C7.70971 35.1717 7.65863 35.9768 7.72699 36.7781C7.79752 37.6047 8.00468 38.5331 8.32903 39.4608C8.97098 41.2971 10.1197 43.2629 11.7476 44.443C14.6414 46.5409 17.2065 46.5131 18.6733 46.4972C18.7919 46.4959 18.9033 46.4947 19.0072 46.4947C19.5466 46.4947 20.2852 46.4092 21.0328 46.3227C21.1219 46.3123 21.2111 46.302 21.3001 46.2918C22.1684 46.1923 23.0669 46.0979 23.8613 46.0949C24.6557 46.0979 25.5542 46.1923 26.4225 46.2918C26.5115 46.302 26.6007 46.3123 26.6898 46.3227C27.4374 46.4092 28.176 46.4947 28.7154 46.4947C28.8193 46.4947 28.9307 46.4959 29.0493 46.4972C30.5161 46.5131 33.0812 46.5409 35.975 44.443C37.6028 43.2629 38.7516 41.2971 39.3936 39.4608C39.7179 38.5331 39.9251 37.6048 39.9956 36.7781C40.064 35.9768 40.0129 35.1717 39.7243 34.5579C39.3915 33.8498 38.9906 33.3194 38.5209 32.9491C38.0447 32.5738 37.5356 32.3932 37.0395 32.3316C36.5554 32.2716 36.0972 32.3265 35.7139 32.3991C35.5212 32.4355 35.3378 32.4785 35.1769 32.5167C35.1591 32.5209 35.1417 32.5251 35.1246 32.5292C34.9809 32.5634 34.8611 32.5919 34.7493 32.6143C33.5388 32.8566 31.445 32.4143 29.1504 30.9279C27.3387 29.7543 24.9535 29.3206 23.9 29.3006V29.2998C23.8872 29.2998 23.8743 29.2999 23.8613 29.3ZM23.8613 30.9001C23.0437 30.9127 20.9549 31.2908 19.4421 32.2707C16.9421 33.8903 14.8368 34.419 12.7313 34.1942C12.5092 34.1705 12.238 34.1176 12.0016 34.0716C11.897 34.0512 11.7992 34.0321 11.7156 34.0175C11.3929 33.9612 11.1146 33.9333 10.8602 33.9604C10.6199 33.986 10.3979 34.061 10.1817 34.2268C9.95884 34.3979 9.70022 34.6983 9.44625 35.2385C9.33536 35.4744 9.26163 35.9439 9.3212 36.6421C9.37861 37.315 9.55214 38.1111 9.8394 38.9328C10.4207 40.5954 11.4187 42.2284 12.6867 43.1476C15.1462 44.9306 17.2519 44.9105 18.6687 44.8969C18.7863 44.8958 18.8992 44.8947 19.0072 44.8947C19.4475 44.8947 20.0862 44.8211 20.8679 44.731C20.9497 44.7215 21.0331 44.7119 21.118 44.7022C21.9691 44.6047 22.9368 44.5009 23.8226 44.4951V44.4948C23.8355 44.4948 23.8484 44.4948 23.8613 44.4949C23.8684 44.4948 23.8755 44.4948 23.8826 44.4948C23.8884 44.4948 23.8942 44.4948 23.9 44.4948V44.4951C24.7858 44.5009 25.7535 44.6047 26.6046 44.7022C26.6895 44.7119 26.7728 44.7215 26.8546 44.731C27.6364 44.8211 28.2751 44.8947 28.7154 44.8947C28.8234 44.8947 28.9363 44.8958 29.0539 44.8969C30.4706 44.9105 32.5764 44.9306 35.0359 43.1476C36.3038 42.2284 37.3019 40.5954 37.8832 38.9328C38.1704 38.1111 38.344 37.315 38.4014 36.6421C38.461 35.9439 38.3872 35.4744 38.2763 35.2385C38.0218 34.697 37.76 34.3867 37.5304 34.2057C37.3073 34.0299 37.0804 33.949 36.8425 33.9195C36.5927 33.8885 36.3191 33.913 36.0113 33.9712C35.8584 34.0001 35.7065 34.0354 35.547 34.0733C35.5297 34.0774 35.5121 34.0816 35.4944 34.0858C35.3556 34.1189 35.2057 34.1547 35.0634 34.1832C33.2782 34.5405 30.7518 33.8717 28.2805 32.2707C26.7677 31.2908 24.6789 30.9127 23.8613 30.9001Z" fill="black"/>
<path fill-rule="evenodd" clip-rule="evenodd" d="M15.1 28.8998C16.3151 28.8998 17.3 27.6462 17.3 26.0998C17.3 24.5534 16.3151 23.2998 15.1 23.2998C13.885 23.2998 12.9 24.5534 12.9 26.0998C12.9 27.6462 13.885 28.8998 15.1 28.8998ZM32.7 28.8998C33.9151 28.8998 34.9 27.6462 34.9 26.0998C34.9 24.5534 33.9151 23.2998 32.7 23.2998C31.485 23.2998 30.5001 24.5534 30.5001 26.0998C30.5001 27.6462 31.485 28.8998 32.7 28.8998Z" fill="black"/>
<path fill-rule="evenodd" clip-rule="evenodd" d="M22.4523 36.8165C22.881 36.7096 23.0877 36.0582 22.914 35.3616C22.7403 34.665 22.252 34.1869 21.8233 34.2937C21.3946 34.4006 21.1879 35.052 21.3616 35.7487C21.5353 36.4453 22.0236 36.9234 22.4523 36.8165ZM25.6233 36.8165C26.052 36.9234 26.5403 36.4453 26.714 35.7487C26.8877 35.052 26.681 34.4006 26.2523 34.2937C25.8236 34.1869 25.3353 34.665 25.1616 35.3616C24.9879 36.0582 25.1946 36.7096 25.6233 36.8165Z" fill="black"/>
<path fill-rule="evenodd" clip-rule="evenodd" d="M182.548 21.3834V16.3017L186.768 21.7237L190.239 21.2473L185.316 14.9405L189.989 9.70001H186.2L182.548 13.965V4.7998H179.349V21.3834H182.548ZM75.075 4.82249H71.4226V7.77169H75.075V4.82249ZM71.8309 18.6383H69.653V21.3834H76.9807V18.6383H75.0297V9.70001H69.653V12.445H71.8309V18.6383ZM59.6417 21.3834C60.4433 21.58 61.2827 21.6783 62.1599 21.6783C63.9445 21.6783 65.3359 21.2699 66.3341 20.4532C67.3323 19.6365 67.8314 18.4947 67.8314 17.0276C67.8314 16.0748 67.6272 15.3035 67.2189 14.7136C66.8105 14.1087 66.319 13.6474 65.7443 13.3298C65.1696 13.0122 64.4436 12.687 63.5664 12.3543L62.6363 11.9913C62.0313 11.7342 61.5927 11.4922 61.3205 11.2654C61.0483 11.0385 60.9122 10.7209 60.9122 10.3125C60.9122 9.84369 61.1088 9.47315 61.502 9.20091C61.8952 8.91356 62.4472 8.76988 63.1581 8.76988C63.7328 8.76988 64.3378 8.86062 64.973 9.04211C65.6233 9.2236 66.2283 9.47315 66.7879 9.79075L67.287 6.79618C65.8955 6.25172 64.5344 5.97948 63.2035 5.97948C61.4491 5.97948 60.0803 6.3954 59.0973 7.22722C58.1142 8.05905 57.6227 9.20091 57.6227 10.6528C57.6227 11.5451 57.8042 12.2711 58.1671 12.8307C58.5452 13.3903 58.9914 13.8289 59.5056 14.1465C60.0198 14.449 60.7004 14.7741 61.5474 15.122C61.6684 15.1674 61.7742 15.2127 61.865 15.2581C61.9557 15.2884 62.0389 15.3186 62.1145 15.3489L62.659 15.5757C63.3093 15.8328 63.7857 16.0748 64.0882 16.3017C64.3907 16.5134 64.5419 16.8235 64.5419 17.2318C64.5419 17.7309 64.3151 18.1317 63.8613 18.4342C63.4076 18.7367 62.8178 18.8879 62.0918 18.8879C61.4566 18.8879 60.7609 18.7745 60.0047 18.5476C59.2636 18.3056 58.5528 17.9729 57.8722 17.5494L57.6 20.5894C58.1747 20.9221 58.8553 21.1868 59.6417 21.3834ZM79.1004 9.70001H82.2311V11.5149C83.1537 10.0932 84.4014 9.3824 85.9743 9.3824C86.8666 9.3824 87.6228 9.59414 88.2429 10.0176C88.8781 10.426 89.3394 11.0158 89.6268 11.7871C90.1561 10.9553 90.746 10.3503 91.3963 9.97224C92.0618 9.57902 92.818 9.3824 93.6649 9.3824C94.9202 9.3824 95.8957 9.76051 96.5914 10.5167C97.3023 11.2578 97.6577 12.2938 97.6577 13.6247V21.3834H94.4589V14.1238C94.4589 13.5188 94.3077 13.05 94.0052 12.7173C93.7178 12.3694 93.3246 12.1955 92.8255 12.1955C92.2054 12.1955 91.6307 12.4526 91.1014 12.9668C90.572 13.481 90.1788 14.1389 89.9217 14.9405V21.3834H86.723V14.1238C86.723 13.534 86.5717 13.0651 86.2692 12.7173C85.9667 12.3694 85.566 12.1955 85.0669 12.1955C84.5073 12.1955 83.9779 12.4072 83.4788 12.8307C82.9949 13.239 82.6016 13.8213 82.2992 14.5775V21.3834H79.1004V9.70001ZM103.831 9.70001H100.723V26.2986H100.72V30.9039C100.206 30.8737 99.8204 30.8585 99.5633 30.8585C97.5064 30.8585 95.9184 31.4332 94.7992 32.5827C93.6951 33.717 93.1431 35.3504 93.1431 37.4829C93.1431 39.2826 93.5136 40.6892 94.2547 41.7025C95.0109 42.7007 96.0469 43.1998 97.3627 43.1998C98.0887 43.1998 98.7314 43.041 99.291 42.7234C99.8657 42.4058 100.35 41.9445 100.743 41.3395H100.834L100.766 42.8595H103.874V26.3289H103.877V21.6556C104.391 21.6859 104.776 21.701 105.034 21.701C107.09 21.701 108.671 21.1338 109.775 19.9995C110.894 18.8501 111.454 17.2091 111.454 15.0766C111.454 13.2769 111.076 11.8779 110.319 10.8797C109.578 9.86637 108.55 9.35972 107.234 9.35972C106.508 9.35972 105.858 9.51852 105.283 9.83613C104.723 10.1537 104.247 10.615 103.854 11.22H103.763L103.831 9.70001ZM107.506 17.9804C107.022 18.6005 106.304 18.9106 105.351 18.9106C104.882 18.9106 104.391 18.8425 103.877 18.7064V14.5548C104.239 13.7835 104.648 13.1937 105.102 12.7853C105.555 12.3618 106.024 12.1501 106.508 12.1501C107.053 12.1501 107.476 12.4299 107.779 12.9895C108.096 13.534 108.255 14.2902 108.255 15.2581C108.255 16.4529 108.005 17.3604 107.506 17.9804ZM112.852 18.6383H114.916V7.54483H112.965V4.82249H118.115V18.6383H120.179V21.3834H112.852V18.6383ZM123.057 20.0903C124.146 21.1792 125.636 21.7237 127.526 21.7237C128.282 21.7237 129.024 21.6329 129.75 21.4514C130.491 21.2851 131.164 21.0431 131.769 20.7255L131.247 18.1619C130.793 18.4039 130.264 18.6005 129.659 18.7518C129.054 18.8879 128.472 18.956 127.912 18.956C126.989 18.956 126.256 18.7518 125.711 18.3434C125.167 17.92 124.819 17.3074 124.668 16.5058H132.381C132.396 16.3395 132.404 16.0824 132.404 15.7345C132.404 13.6776 131.95 12.1047 131.043 11.0158C130.135 9.92687 128.835 9.3824 127.141 9.3824C125.991 9.3824 124.985 9.63195 124.123 10.131C123.276 10.6301 122.619 11.3485 122.15 12.2862C121.681 13.2088 121.446 14.2977 121.446 15.553C121.446 17.4889 121.983 19.0013 123.057 20.0903ZM128.661 12.5585C129.069 12.9366 129.296 13.4508 129.341 14.1011H124.645C124.751 13.4357 125.008 12.9139 125.416 12.5358C125.84 12.1577 126.377 11.9686 127.027 11.9686C127.708 11.9686 128.252 12.1652 128.661 12.5585ZM141.834 21.4061C140.76 21.4061 139.958 21.3985 139.429 21.3834V6.2744C140.079 6.25928 141.04 6.25172 142.31 6.25172C143.596 6.25172 144.556 6.25928 145.191 6.2744C146.674 6.28953 147.959 6.59201 149.048 7.18185C150.152 7.75656 150.999 8.58083 151.589 9.65464C152.194 10.7284 152.496 11.9837 152.496 13.4205C152.496 14.9934 152.148 16.3773 151.453 17.5721C150.772 18.7669 149.804 19.697 148.549 20.3625C147.309 21.028 145.864 21.3682 144.216 21.3834C143.686 21.3985 142.892 21.4061 141.834 21.4061ZM144.193 18.5249C145.721 18.5249 146.923 18.0788 147.8 17.1864C148.677 16.2941 149.116 15.0691 149.116 13.5113C149.116 12.1047 148.738 11.0234 147.982 10.2672C147.241 9.51096 146.167 9.13286 144.76 9.13286H142.719V18.5249H144.193ZM155.821 20.5667C156.532 21.3229 157.508 21.701 158.748 21.701C159.549 21.701 160.23 21.5422 160.79 21.2246C161.364 20.8918 161.871 20.4305 162.31 19.8407V21.3834H165.508V9.70001H162.31V17.0503C161.992 17.6099 161.591 18.0561 161.107 18.3888C160.638 18.7215 160.147 18.8879 159.633 18.8879C159.118 18.8879 158.71 18.7215 158.408 18.3888C158.105 18.0409 157.954 17.557 157.954 16.9369V9.70001H154.755V17.4587C154.755 18.7745 155.111 19.8105 155.821 20.5667ZM173.894 21.7237C171.958 21.7237 170.453 21.2094 169.379 20.181C168.321 19.1526 167.791 17.7007 167.791 15.8253C167.791 14.5548 168.041 13.4357 168.54 12.4677C169.039 11.4847 169.742 10.7284 170.65 10.1991C171.557 9.65464 172.608 9.3824 173.803 9.3824C174.363 9.3824 174.945 9.45046 175.55 9.58658C176.17 9.70757 176.646 9.85125 176.979 10.0176L176.367 12.7173C176.019 12.5509 175.633 12.4223 175.21 12.3316C174.801 12.2257 174.416 12.1728 174.053 12.1728C173.115 12.1728 172.359 12.4904 171.784 13.1256C171.224 13.7608 170.945 14.6002 170.945 15.6438C170.945 16.7025 171.232 17.5192 171.807 18.0939C172.397 18.6686 173.228 18.956 174.302 18.956C175.013 18.956 175.777 18.8198 176.594 18.5476L177.07 21.1338C176.087 21.527 175.028 21.7237 173.894 21.7237ZM98.0887 40.4094C98.5726 40.4094 99.0415 40.2052 99.4952 39.7969C99.9489 39.3734 100.357 38.776 100.72 38.0047V33.8531C100.206 33.717 99.7145 33.6489 99.2457 33.6489C98.2928 33.6489 97.5669 33.959 97.0678 34.5791C96.5838 35.1991 96.3418 36.1066 96.3418 37.3014C96.3418 38.2693 96.4931 39.0331 96.7956 39.5927C97.1132 40.1372 97.5442 40.4094 98.0887 40.4094ZM62.746 43.1544C61.8688 43.1544 61.0294 43.0561 60.2278 42.8595C59.4414 42.6629 58.7608 42.3982 58.1861 42.0655L58.4583 39.0255C59.1389 39.449 59.8497 39.7817 60.5908 40.0237C61.347 40.2506 62.0427 40.364 62.6779 40.364C63.4039 40.364 63.9937 40.2128 64.4474 39.9103C64.9012 39.6078 65.128 39.207 65.128 38.7079C65.128 38.2996 64.9768 37.9895 64.6743 37.7778C64.3718 37.5509 63.8954 37.309 63.2451 37.0518L62.7006 36.825C62.625 36.7947 62.5418 36.7645 62.451 36.7342C62.3603 36.6889 62.2544 36.6435 62.1334 36.5981C61.2865 36.2503 60.6059 35.9251 60.0917 35.6226C59.5775 35.305 59.1313 34.8664 58.7532 34.3068C58.3902 33.7472 58.2087 33.0213 58.2087 32.129C58.2087 30.677 58.7003 29.5352 59.6833 28.7033C60.6664 27.8715 62.0351 27.4556 63.7895 27.4556C65.1205 27.4556 66.4816 27.7278 67.873 28.2723L67.3739 31.2669C66.8143 30.9493 66.2094 30.6997 65.559 30.5182C64.9238 30.3367 64.3189 30.246 63.7442 30.246C63.0333 30.246 62.4813 30.3897 62.0881 30.677C61.6948 30.9493 61.4982 31.3198 61.4982 31.7887C61.4982 32.197 61.6343 32.5146 61.9066 32.7415C62.1788 32.9683 62.6174 33.2103 63.2224 33.4674L64.1525 33.8304C65.0297 34.1631 65.7557 34.4883 66.3304 34.8059C66.9051 35.1235 67.3966 35.5848 67.805 36.1898C68.2133 36.7796 68.4175 37.5509 68.4175 38.5038C68.4175 39.9708 67.9184 41.1127 66.9202 41.9294C65.922 42.7461 64.5306 43.1544 62.746 43.1544ZM74.8687 43.1998C73.7798 43.1998 72.9328 42.9276 72.3278 42.3831C71.738 41.8235 71.4431 41.037 71.4431 40.0237V33.9212H69.6282V31.1761H71.4431V28.6807C72.5169 28.4992 73.5756 28.3631 74.6191 28.2723V31.1761H77.5683V33.9212H74.6191V39.4339C74.6191 39.7515 74.7099 39.9935 74.8914 40.1598C75.088 40.3262 75.3602 40.4094 75.7081 40.4094C76.1316 40.4094 76.6155 40.3111 77.16 40.1145L77.8633 42.5192C76.8953 42.9729 75.8971 43.1998 74.8687 43.1998ZM81.0824 42.0428C81.7932 42.799 82.7687 43.1771 84.0089 43.1771C84.8105 43.1771 85.4911 43.0183 86.0507 42.7007C86.6254 42.368 87.132 41.9067 87.5706 41.3168V42.8595H90.7694V31.1761H87.5706V38.5264C87.253 39.086 86.8522 39.5322 86.3683 39.8649C85.8994 40.1977 85.4079 40.364 84.8937 40.364C84.3794 40.364 83.9711 40.1977 83.6686 39.8649C83.3661 39.5171 83.2149 39.0331 83.2149 38.413V31.1761H80.0161V38.9348C80.0161 40.2506 80.3716 41.2866 81.0824 42.0428ZM111.817 26.2986H108.165V29.2478H111.817V26.2986ZM108.573 40.1145H106.395V42.8595H113.723V40.1145H111.772V31.1761H106.395V33.9212H108.573V40.1145ZM121.02 43.1998C119.841 43.1998 118.797 42.9427 117.89 42.4285C116.997 41.9142 116.302 41.1958 115.802 40.2733C115.303 39.3356 115.054 38.2542 115.054 37.0292C115.054 35.8041 115.296 34.7303 115.78 33.8077C116.279 32.87 116.975 32.1441 117.867 31.6299C118.774 31.1156 119.818 30.8585 120.998 30.8585C122.177 30.8585 123.213 31.1156 124.106 31.6299C125.013 32.129 125.709 32.8398 126.193 33.7624C126.692 34.6849 126.941 35.7512 126.941 36.9611C126.941 38.1861 126.692 39.2751 126.193 40.2279C125.709 41.1656 125.013 41.8991 124.106 42.4285C123.213 42.9427 122.185 43.1998 121.02 43.1998ZM120.998 40.4321C121.814 40.4321 122.465 40.122 122.949 39.5019C123.448 38.8667 123.697 38.0349 123.697 37.0065C123.697 35.978 123.448 35.1613 122.949 34.5564C122.465 33.9363 121.814 33.6262 120.998 33.6262C120.181 33.6262 119.523 33.9363 119.024 34.5564C118.54 35.1613 118.298 35.978 118.298 37.0065C118.298 38.0349 118.54 38.8667 119.024 39.5019C119.523 40.122 120.181 40.4321 120.998 40.4321ZM130.648 42.9729C131.344 43.1242 132.062 43.1998 132.803 43.1998C134.27 43.1998 135.45 42.8897 136.342 42.2697C137.235 41.6496 137.681 40.7194 137.681 39.4793C137.681 38.7382 137.522 38.1332 137.205 37.6644C136.887 37.1804 136.516 36.8174 136.093 36.5754C135.669 36.3334 135.14 36.0839 134.505 35.8268C134.429 35.7965 134.165 35.6982 133.711 35.5319C133.136 35.3353 132.728 35.1613 132.486 35.0101C132.244 34.8589 132.123 34.632 132.123 34.3295C132.123 34.0119 132.267 33.7699 132.554 33.6035C132.856 33.4372 133.257 33.354 133.756 33.354C134.24 33.354 134.754 33.4372 135.299 33.6035C135.858 33.7548 136.358 33.959 136.796 34.2161L137.227 31.5164C135.987 31.0778 134.807 30.8585 133.688 30.8585C132.267 30.8585 131.11 31.1913 130.217 31.8567C129.34 32.5071 128.901 33.4221 128.901 34.6017C128.901 35.3428 129.068 35.9402 129.4 36.3939C129.733 36.8477 130.104 37.188 130.512 37.4148C130.92 37.6266 131.45 37.8534 132.1 38.0954L132.713 38.3223C133.393 38.5643 133.855 38.7684 134.097 38.9348C134.339 39.086 134.46 39.3053 134.46 39.5927C134.46 39.9557 134.286 40.2355 133.938 40.4321C133.59 40.6136 133.159 40.7043 132.645 40.7043C132.1 40.7043 131.518 40.606 130.898 40.4094C130.278 40.2128 129.711 39.9557 129.196 39.6381L128.901 42.3604C129.385 42.6175 129.968 42.8217 130.648 42.9729Z" fill="black"/>
</svg>
